<svg version="1.1" xmlns="http://www.w3.org/2000/svg" width="30" height="30" viewBox="0 0 30 30">

<path d="M93.633 93.812a1.985 1.985 0 0 1 0 2.805l-2.805 2.804a1.985 1.985 0 0 1-2.804 0L68.387 79.784a1.956 1.956 0 0 1-.454-.734c-4.027 2.941-8.972 4.7-14.344 4.7-13.46 0-24.375-10.91-24.375-24.372 0-13.46 10.914-24.375 24.375-24.375s24.375 10.914 24.375 24.375c0 5.371-1.757 10.316-4.699 14.344.27.094.52.235.735.453zM53.59 43.132c-8.973 0-16.25 7.273-16.25 16.25 0 8.973 7.273 16.246 16.25 16.246 8.973 0 16.25-7.273 16.25-16.246 0-8.977-7.277-16.25-16.25-16.25zM4.68 28.594h59.184v-6.281H4.68zm0-22.496v6.281h59.184V6.098zm0 38.707h22.102a30.283 30.283 0 0 1 4.664-6.281l-26.766.004zm0 9.938v6.28h18.383c-.028-.527-.078-1.046-.078-1.577 0-1.602.164-3.164.402-4.703z"></path>
</svg>